<svg width="106" height="63" viewBox="0 0 106 63" fill="none" xmlns="http://www.w3.org/2000/svg">
<path d="M41.2343 38.7422C40.6196 38.0479 39.7108 37.7007 38.508 37.7007C37.3052 37.7007 36.2494 38.3683 35.3406 39.7035C34.4586 41.0119 34.0176 42.8278 34.0176 45.151C34.0176 49.7974 35.4476 52.1206 38.3075 52.1206C39.5638 52.1206 40.5394 51.5999 41.2343 50.5584V38.7422ZM47.529 29.0088V51.5198C47.529 52.9617 47.97 53.9097 48.8521 54.3637C47.8364 55.5119 46.6068 56.086 45.1635 56.086C43.3727 56.086 42.1966 55.365 41.6353 53.9231C41.0472 54.5906 40.2855 55.1247 39.35 55.5253C38.4412 55.8991 37.5458 56.086 36.6637 56.086C34.0176 56.086 31.8258 55.1648 30.0884 53.3222C28.3778 51.4797 27.5225 48.9562 27.5225 45.7518C27.5225 42.5207 28.4981 39.7969 30.4493 37.5806C32.4005 35.3642 35.0333 34.256 38.3476 34.256C39.2831 34.256 40.2454 34.3628 41.2343 34.5764V28.7684C41.2343 27.4332 40.78 26.4853 39.8712 25.9245C40.8869 24.803 42.1164 24.2422 43.5598 24.2422C46.2059 24.2422 47.529 25.831 47.529 29.0088Z" fill="url(#paint0_linear_859_8624)"/>
<path d="M86.2024 41.4659V51.5198C86.2024 52.9617 86.63 53.9097 87.4853 54.3637C86.5231 55.5119 85.3069 56.086 83.8369 56.086C81.2174 56.086 79.9077 54.4972 79.9077 51.3195V42.3872C79.9077 41.4258 79.6672 40.6782 79.186 40.1441C78.7316 39.5833 78.0768 39.3029 77.2215 39.3029C76.3661 39.3029 75.5376 39.6901 74.7357 40.4645C73.9338 41.2122 73.3592 42.3338 73.0117 43.8292V51.5198C73.0117 52.9617 73.4393 53.9097 74.2947 54.3637C73.3324 55.5119 72.1163 56.086 70.6462 56.086C68.0268 56.086 66.717 54.4972 66.717 51.3195V42.3872C66.717 41.4258 66.4765 40.6782 65.9954 40.1441C65.541 39.5833 64.8861 39.3029 64.0308 39.3029C63.1755 39.3029 62.3469 39.7035 61.545 40.5046C60.7431 41.279 60.1685 42.4406 59.821 43.9894V51.5198C59.821 52.9617 60.262 53.9097 61.1441 54.3637C60.1284 55.5119 58.8989 56.086 57.4555 56.086C54.8361 56.086 53.5264 54.4972 53.5264 51.3195V38.7822C53.5264 37.3936 53.072 36.459 52.1632 35.9783C53.1789 34.8301 54.3683 34.256 55.7315 34.256C57.0947 34.256 58.097 34.6031 58.7385 35.2974C59.38 35.965 59.7408 37.0064 59.821 38.4217C60.5427 37.0598 61.5317 36.0318 62.7879 35.3375C64.0709 34.6165 65.4474 34.256 66.9175 34.256C68.4143 34.256 69.6706 34.6565 70.6863 35.4576C71.702 36.2587 72.3835 37.4203 72.731 38.9424C73.426 37.4203 74.4417 36.2587 75.7781 35.4576C77.1146 34.6565 78.6381 34.256 80.3487 34.256C82.0594 34.256 83.4626 34.8702 84.5585 36.0985C85.6544 37.3269 86.2024 39.116 86.2024 41.4659Z" fill="url(#paint1_linear_859_8624)"/>
<path d="M98.7052 38.5419V49.3568C98.7052 51.0391 99.36 51.8802 100.67 51.8802C102.113 51.8802 103.45 51.226 104.679 49.9175C105.053 49.9175 105.361 50.0778 105.601 50.3982C105.868 50.6919 106.002 51.0925 106.002 51.5999C106.002 52.6947 105.334 53.7228 103.997 54.6841C102.661 55.6187 101.004 56.086 99.0259 56.086C97.0747 56.086 95.4844 55.592 94.2548 54.604C93.0253 53.616 92.4105 52.1072 92.4105 50.0778V38.5419C91.4483 38.5152 90.7266 38.2882 90.2455 37.8609C89.7644 37.407 89.5238 36.8462 89.5238 36.1786C89.5238 35.511 89.8045 34.977 90.3658 34.5764C91.0073 34.6565 91.6889 34.6966 92.4105 34.6966V33.4949C92.4105 32.1063 91.9561 31.1717 91.0474 30.6911C92.0631 29.5428 93.2659 28.9687 94.6558 28.9687C96.0724 28.9687 97.1014 29.3559 97.7429 30.1303C98.3844 30.9047 98.7052 32.1063 98.7052 33.7353V34.6966H104.759C104.946 34.9102 105.04 35.1772 105.04 35.4977C105.04 36.3255 104.586 37.0465 103.677 37.6607C102.795 38.2481 101.244 38.5419 99.0259 38.5419H98.7052Z" fill="url(#paint2_linear_859_8624)"/>
<path d="M81.9085 0L41.2822 5.7631V22.8089H42.6892V6.16896L80.8533 0.974046V22.8089H81.9085V0Z" fill="url(#paint3_linear_859_8624)"/>
<path d="M82.9637 0V22.8089L102.398 22.1595V3.89618L82.9637 0Z" fill="url(#paint4_linear_859_8624)"/>
<path d="M84.1943 2.75967V1.46094L86.3927 1.86679V3.16552L84.1943 2.75967Z" fill="white"/>
<path d="M86.833 3.24795V1.94922L89.0314 2.35507V3.6538L86.833 3.24795Z" fill="white"/>
<path d="M89.4707 3.73623V2.4375L91.6691 2.84335V4.14208L89.4707 3.73623Z" fill="white"/>
<path d="M92.1094 4.2206V2.92188L94.3078 3.32773V4.62646L92.1094 4.2206Z" fill="white"/>
<path d="M94.7471 4.70888V3.41016L96.9455 3.81601V5.11474L94.7471 4.70888Z" fill="white"/>
<path d="M97.3809 5.19326V3.89453L99.5793 4.30038V5.59911L97.3809 5.19326Z" fill="white"/>
<path d="M100.024 5.66007V4.54688L101.959 4.89475V6.00794L100.024 5.66007Z" fill="white"/>
<path d="M81.9085 0L41.2822 5.7631V22.8089H42.6892V9.06464L73.6967 5.7631V22.8089H81.9085V0Z" fill="url(#paint5_linear_859_8624)"/>
<path d="M82.9637 0V22.8089L102.398 22.1595V3.89618L82.9637 0Z" fill="url(#paint6_linear_859_8624)"/>
<path d="M84.1943 2.75967V1.46094L86.3927 1.86679V3.16552L84.1943 2.75967Z" fill="white"/>
<path d="M86.833 3.24795V1.94922L89.0314 2.35507V3.6538L86.833 3.24795Z" fill="white"/>
<path d="M89.4707 3.73623V2.4375L91.6691 2.84335V4.14208L89.4707 3.73623Z" fill="white"/>
<path d="M92.1094 4.2206V2.92188L94.3078 3.32773V4.62646L92.1094 4.2206Z" fill="white"/>
<path d="M94.7471 4.70888V3.41016L96.9455 3.81601V5.11474L94.7471 4.70888Z" fill="white"/>
<path d="M97.3809 5.19326V3.89453L99.5793 4.30038V5.59911L97.3809 5.19326Z" fill="white"/>
<path d="M100.024 5.66007V4.54688L101.959 4.89475V6.00794L100.024 5.66007Z" fill="white"/>
<g clip-path="url(#clip0_859_8624)">
<path d="M57.0728 20.9805H48.0801V22.026H57.0728V20.9805Z" fill="#8C6320"/>
<path d="M57.7166 20.2697C57.727 20.2697 57.7376 20.2702 57.7477 20.2708C58.2148 20.2939 58.5885 20.8363 58.5885 21.5029C58.5885 22.1696 58.1981 22.7366 57.7164 22.7366H57.0303V20.2706L57.7164 20.2695L57.7166 20.2697Z" fill="#333332"/>
<path d="M57.0309 22.5151C56.7122 22.5151 56.4243 22.0828 56.402 21.5712C56.4008 21.5458 56.4004 21.5235 56.4004 21.5034C56.4004 20.9648 56.6951 20.4922 57.0309 20.4922C57.0368 20.4922 57.0431 20.4926 57.0489 20.4928C57.3447 20.5075 57.661 20.9169 57.661 21.5034C57.661 22.0425 57.3666 22.5153 57.0309 22.5153V22.5151Z" fill="#BCBDBF"/>
<path d="M57.0285 20.7132C57.0307 20.7132 57.033 20.7134 57.0355 20.7136C57.0965 20.7167 57.1798 20.7824 57.2473 20.8813C57.356 21.0403 57.4186 21.2667 57.4186 21.5029C57.4186 21.7391 57.354 21.9743 57.241 22.1339C57.1728 22.2305 57.0899 22.2929 57.0303 22.2929C56.9096 22.2929 56.6636 22.0348 56.6431 21.5626C56.6422 21.5397 56.6417 21.5203 56.6417 21.5029C56.6417 21.2618 56.7066 21.032 56.8194 20.8724C56.8869 20.7768 56.9688 20.7147 57.0285 20.7134V20.7132ZM57.0305 20.2695C56.5488 20.2695 56.1582 20.8216 56.1582 21.5027C56.1582 21.5283 56.1589 21.5537 56.16 21.5793C56.1879 22.2249 56.567 22.7364 57.0307 22.7364C57.5125 22.7364 57.9028 22.1839 57.9028 21.5027C57.9028 20.8216 57.5291 20.2935 57.062 20.2706C57.0517 20.2702 57.0411 20.2695 57.031 20.2695H57.0305Z" fill="#21211F"/>
<path d="M49.056 21.5812C49.0241 20.885 48.6479 20.3214 48.1655 20.2289C48.1193 20.2194 48.0721 20.2148 48.0241 20.2148H47.417V21.5812H49.056Z" fill="#8C6320"/>
<path d="M56.991 20.2018C56.8794 20.2018 56.7837 20.1242 56.7725 20.0201C56.7709 20.0049 56.6043 18.4814 56.2995 16.9796C55.7298 14.1721 55.2284 14.0909 55.1731 14.0909C55.0515 14.0909 54.9531 14.0007 54.9531 13.8892C54.9531 13.7777 55.0515 13.6875 55.1731 13.6875C55.5499 13.6875 55.861 14.0333 56.1523 14.7758C56.3551 15.2928 56.5503 16.0102 56.7324 16.9077C57.0406 18.4262 57.2085 19.9648 57.2103 19.9801C57.2222 20.091 57.134 20.1897 57.0131 20.2008C57.0057 20.2014 56.9985 20.2018 56.991 20.2018Z" fill="#738086"/>
<path d="M52.4026 13.9141H51.9355V18.5975H52.4026V13.9141Z" fill="#738086"/>
<path d="M56.6792 20.2018C56.5675 20.2018 56.4718 20.1242 56.4606 20.0201C56.459 20.0049 56.2924 18.4814 55.9876 16.9796C55.4179 14.1721 54.9166 14.0909 54.8612 14.0909H51.175C51.0535 14.0909 50.9551 14.0007 50.9551 13.8892C50.9551 13.7777 51.0535 13.6875 51.175 13.6875H54.8612C55.238 13.6875 55.5491 14.0333 55.8404 14.7758C56.0432 15.2928 56.2384 16.0102 56.4205 16.9077C56.7287 18.4262 56.8966 19.9648 56.8984 19.9801C56.9104 20.091 56.8221 20.1897 56.7012 20.2008C56.6938 20.2014 56.6866 20.2018 56.6792 20.2018Z" fill="#485959"/>
<path d="M52.4026 13.9648H51.9355V14.8163H52.4026V13.9648Z" fill="#485959"/>
<path d="M50.9184 20.5305V21.5824H56.6493C56.6481 21.5564 56.7076 21.5314 56.7076 21.5058C56.7076 20.6317 56.6977 20.8257 57.3156 20.8257C57.3259 20.8257 57.3361 20.8262 57.3467 20.8268V19.9297H53.7438L50.918 20.5307L50.9184 20.5305Z" fill="#FFC943"/>
<path d="M50.9188 20.4384C50.9188 20.7138 51.0781 20.9393 51.2729 20.9393L53.6748 20.5761C53.8695 20.5761 54.335 20.7826 54.1885 20.6011L52.6251 18.4549C52.4785 18.2734 52.1992 18.125 52.0042 18.125H48.2008C48.0061 18.125 47.8467 18.3505 47.8467 18.6259L50.9188 20.4382V20.4384Z" fill="#FFC943"/>
<path d="M52.5599 21.5812C52.528 20.885 52.1518 20.3214 51.6694 20.2289C51.6232 20.2194 51.576 20.2148 51.528 20.2148H50.9209V21.5812H52.5599Z" fill="#8D7120"/>
<path d="M56.8682 21.697H53.8396L53.7148 20.0195L56.8682 20.1339V21.697Z" fill="#8C6320"/>
<path d="M56.2646 14.8133H56.7786C56.8333 14.8133 56.8781 14.7499 56.8781 14.6725V13.9377C56.8781 13.8603 56.8333 13.7969 56.7786 13.7969H56.2646V14.8133Z" fill="#FF573B"/>
<path d="M56.2285 14.8133H56.3557C56.4104 14.8133 56.4552 14.7499 56.4552 14.6725V13.9377C56.4552 13.8603 56.4104 13.7969 56.3557 13.7969H56.2285V14.8133Z" fill="#D33131"/>
<path d="M56.2621 13.7969H56.0262C55.9676 13.7969 55.9199 13.8646 55.9199 13.9472V14.6651C55.9199 14.7476 55.9676 14.8154 56.0262 14.8154H56.2621V13.7969Z" fill="#3B3F42"/>
<path d="M54.7294 20.0195H54.1309V21.5825H54.7294V20.0195Z" fill="#8D7120"/>
<path d="M53.2345 19.5428C53.1861 19.5452 53.1409 19.5114 53.1339 19.4674L52.7656 17.1893C52.7584 17.1453 52.7924 17.1094 52.8406 17.1094H54.517C54.5654 17.1094 54.6291 17.1381 54.6588 17.1732L55.166 17.7744C55.1957 17.8095 55.224 17.8743 55.2292 17.9185L55.3983 19.3501C55.4034 19.3943 55.3683 19.4323 55.3199 19.4348L53.2347 19.5425L53.2345 19.5428Z" fill="#3C4949"/>
<path d="M48.6512 20.6176C48.6573 20.6172 48.6636 20.6172 48.6699 20.6172C49.0841 20.6172 49.4197 21.0918 49.4197 21.6776C49.4197 21.6995 49.4191 21.7216 49.4182 21.7434C49.3941 22.2986 49.0686 22.7384 48.6699 22.7384H48.1152V20.6172L48.6514 20.6176H48.6512Z" fill="#333332"/>
<path d="M48.1147 22.5172C47.8743 22.5172 47.6064 22.1726 47.6064 21.6783C47.6064 21.4411 47.669 21.2199 47.7825 21.0558C47.8367 20.9773 47.9506 20.8452 48.1051 20.84H48.1111L48.1147 20.8398C48.3549 20.8398 48.6226 21.1842 48.6226 21.6783C48.6226 21.6975 48.6221 21.7167 48.6212 21.7359C48.6028 22.1591 48.3709 22.5174 48.1147 22.5174V22.5172Z" fill="#BCBDBF"/>
<path d="M48.1157 21.0611C48.1301 21.0623 48.1821 21.089 48.2388 21.1693C48.3289 21.2967 48.3804 21.4819 48.3804 21.6776C48.3804 21.6916 48.38 21.7075 48.3793 21.7259C48.3714 21.9101 48.3169 22.082 48.2303 22.1981C48.1708 22.2776 48.1231 22.2947 48.1145 22.2947C48.1017 22.2947 48.0486 22.2691 47.9901 22.1863C47.9 22.0589 47.8482 21.8735 47.8482 21.6778C47.8482 21.4821 47.8987 21.3014 47.9867 21.1742C48.0499 21.0828 48.104 21.0615 48.1139 21.0613H48.1157V21.0611ZM48.1145 20.6172C48.1085 20.6172 48.1022 20.6172 48.0959 20.6176C47.6902 20.6314 47.3643 21.1003 47.3643 21.6776C47.3643 22.2549 47.7001 22.7384 48.1143 22.7384C48.5285 22.7384 48.8385 22.2986 48.8626 21.7434C48.8635 21.7216 48.8642 21.6995 48.8642 21.6776C48.8642 21.0918 48.5285 20.6172 48.1143 20.6172H48.1145Z" fill="#21211F"/>
<path d="M55.562 13.1016H54.8281V22.3028H55.562V13.1016Z" fill="#738086"/>
<path d="M51.8738 18.0195H50.4502V18.4702H51.8738V18.0195Z" fill="#333332"/>
<path d="M50.5011 15.582C50.416 15.582 50.3525 15.6475 50.36 15.7274L50.4948 17.1856C50.5022 17.2655 50.5686 17.3312 50.6423 17.3312C50.7159 17.3312 50.7917 17.267 50.8106 17.1887L50.9864 16.4578C51.0054 16.3794 50.9909 16.2555 50.9547 16.1824L50.7219 15.7148C50.6857 15.6417 50.5862 15.582 50.5013 15.582H50.5011Z" fill="#3C4949"/>
<path d="M52.5183 18.3242H50.2612C50.0182 18.3242 49.8213 18.5048 49.8213 18.7276V19.8242C49.8213 20.047 50.0182 20.2276 50.2612 20.2276H52.5183C52.7613 20.2276 52.9582 20.047 52.9582 19.8242V18.7276C52.9582 18.5048 52.7613 18.3242 52.5183 18.3242Z" fill="#738086"/>
<path opacity="0.4" d="M52.7713 19.6138L51.0585 18.7656L50.7275 19.8904L52.7909 19.7833L52.7713 19.6138Z" fill="#21211F"/>
<path d="M50.7052 15.582C50.6201 15.582 50.5566 15.6475 50.5641 15.7274L50.6989 17.1856C50.7063 17.2655 50.7727 17.3312 50.8464 17.3312C50.92 17.3312 50.9958 17.267 51.0147 17.1887L51.1905 16.4578C51.2095 16.3794 51.1951 16.2555 51.1588 16.1824L50.926 15.7148C50.8898 15.6417 50.7903 15.582 50.7054 15.582H50.7052Z" fill="#738086"/>
<path d="M48.8997 13.9141H48.4326V18.5975H48.8997V13.9141Z" fill="#485959"/>
<path d="M49.4851 15.5898C49.3975 15.5898 49.332 15.6553 49.3394 15.7352L49.4743 17.1934C49.4817 17.2733 49.5594 17.339 49.6469 17.339H50.4515C50.5391 17.339 50.6151 17.2733 50.6205 17.1932L50.6694 16.4688C50.6748 16.3887 50.6626 16.2592 50.6426 16.1809L50.5267 15.7319C50.5064 15.6538 50.4184 15.5898 50.3308 15.5898H49.4851Z" fill="#485959"/>
<path d="M49.5958 15.582C49.5107 15.582 49.4473 15.6475 49.4547 15.7274L49.5895 17.1856C49.597 17.2655 49.6634 17.3312 49.737 17.3312C49.8106 17.3312 49.8865 17.267 49.9054 17.1887L50.0812 16.4578C50.1001 16.3794 50.0857 16.2555 50.0494 16.1824L49.8167 15.7148C49.7804 15.6417 49.6809 15.582 49.5961 15.582H49.5958Z" fill="#738086"/>
<path d="M50.3624 18.0128C50.4417 18.0638 50.5855 18.1057 50.6823 18.1057H51.8416C51.9384 18.1057 52.0177 18.033 52.0177 17.9442V17.8878C52.0177 17.7991 51.9402 17.7111 51.8457 17.6923L50.6783 17.4601C50.5837 17.4413 50.4273 17.4258 50.3305 17.4258H49.629C49.5322 17.4258 49.5178 17.4675 49.5971 17.5187L50.3627 18.0125L50.3624 18.0128Z" fill="#738086"/>
<path d="M50.3838 14.4708C50.3948 14.4249 50.4329 14.3576 50.5549 14.3483C50.6769 14.339 50.6805 14.4293 50.6697 14.4458C50.6586 14.4623 50.6251 14.4988 50.6251 14.4988L50.5103 14.5224L50.3838 14.4708Z" fill="#FFF1AA"/>
<path d="M50.8954 15.9742L51.096 16.3019L51.2043 16.4786L51.3267 16.6578C51.3537 16.7022 51.4017 16.7346 51.4548 16.7493C51.489 16.7586 51.5257 16.7604 51.5604 16.7534L52.3604 16.5818C52.4241 16.5686 52.4642 16.5104 52.4498 16.452C52.4354 16.3936 52.3719 16.3568 52.3082 16.3698L51.5246 16.5379L51.3463 16.2676L51.3177 16.2209L51.1016 15.8679C51.0696 15.8157 50.9974 15.7971 50.9404 15.8264C50.8833 15.8557 50.863 15.922 50.8952 15.9742H50.8954Z" fill="#FFA68A"/>
<path d="M51.0957 16.3009L51.204 16.4776L51.3465 16.2666L51.3179 16.22L51.2427 16.1719L51.0957 16.3009Z" fill="#23385C"/>
<path d="M51.112 15.8635C51.1546 15.9306 51.3428 16.2595 51.3428 16.2595L51.0627 16.4292L50.8545 16.1329L51.1122 15.8633L51.112 15.8635Z" fill="#FFE02C"/>
<path d="M51.1455 17.3145C51.1455 17.3145 51.1481 17.3104 51.151 17.3047C51.152 17.3106 51.1455 17.3145 51.1455 17.3145Z" fill="#FFE536"/>
<path d="M51.1953 16.0862C51.1953 16.0862 51.189 16.3573 51.1816 16.6682C51.1753 16.9507 51.1805 16.9154 51.1616 17.1119C51.1591 17.1416 51.1577 17.1736 51.1577 17.2023C51.1577 17.2412 51.1602 17.2732 51.1591 17.2824C51.1591 17.2893 51.1541 17.2985 51.1503 17.3054C51.1492 17.2915 51.1017 17.2665 50.7849 17.2688C50.2674 17.2723 50.0617 17.0927 50.0617 17.0927L50.0605 16.0121C50.0605 15.9561 50.0768 15.9093 50.1067 15.8748L50.4135 16.1585L50.4534 16.1962L50.5132 15.9881L50.3523 15.7881C50.3647 15.7835 50.3784 15.7812 50.3921 15.7812H50.9108C50.9182 15.7812 50.9259 15.7813 50.9333 15.7823C50.9407 15.7823 50.947 15.7835 50.9533 15.7846C50.9871 15.7891 51.0168 15.8005 51.0443 15.8153C51.0468 15.8166 51.0492 15.8188 51.0531 15.8199C51.1404 15.8725 51.1951 15.9743 51.1951 16.0864L51.1953 16.0862Z" fill="#23385C"/>
<path d="M51.1958 16.0864C51.1958 16.0864 51.1895 16.3575 51.1821 16.6684C51.1758 16.9509 51.1809 16.9156 51.162 17.1121C51.1596 17.1418 51.1582 17.1738 51.1582 17.2025L50.4138 16.1585L50.4536 16.1962L50.5135 15.9881L50.3525 15.7881C50.3649 15.7835 50.3787 15.7812 50.3924 15.7812H50.911C50.9185 15.7812 50.9261 15.7813 50.9335 15.7823C50.941 15.7823 50.9473 15.7835 50.9536 15.7846C50.9873 15.7891 51.0171 15.8005 51.0445 15.8153C51.047 15.8166 51.0495 15.8188 51.0533 15.8199C51.1406 15.8725 51.1954 15.9743 51.1954 16.0864H51.1958Z" fill="#FFE02C"/>
<path d="M51.164 17.111V17.6542H50.0605V17.1029C50.0617 17.0961 50.0617 17.0916 50.0617 17.0881C50.0617 17.1019 50.4207 17.119 50.4207 17.119C50.457 17.1077 50.4793 17.0893 50.4793 17.0631C50.4793 16.8903 50.4754 16.6124 50.4793 16.4329C50.4817 16.3473 50.4806 16.3848 50.4806 16.3438H51.119V17.119L51.1638 17.111H51.164Z" fill="#177FBF"/>
<path d="M50.5832 15.9891L50.4531 16.1972L50.1064 15.876C50.1452 15.8279 50.21 15.8017 50.2922 15.8017C50.3108 15.8017 50.3309 15.7936 50.352 15.7891L50.5832 15.9891Z" fill="#F7C52C"/>
<path d="M50.3952 15.7734C50.5791 15.7734 50.6194 16.1734 50.6172 16.3509L50.5537 16.354L50.481 16.3509C50.4834 16.1734 50.4564 15.7712 50.2471 15.7999C50.2471 15.7999 50.2786 15.7856 50.3108 15.7815C50.343 15.7774 50.395 15.7734 50.395 15.7734H50.3952Z" fill="#177FBF"/>
<path d="M50.8105 15.8049C50.8232 15.809 50.8346 15.8156 50.8457 15.8243C50.9596 15.9141 50.9879 16.2236 50.9859 16.3644L51.0647 16.3586L51.1194 16.3644C51.1214 16.2194 51.0949 15.9133 50.985 15.8059C50.9753 15.7966 50.9652 15.7888 50.9542 15.7826C50.9371 15.7729 50.9181 15.7677 50.8974 15.7677C50.8974 15.7677 50.8479 15.7632 50.8157 15.7675C50.8146 15.7675 50.8132 15.7679 50.8123 15.7679V15.7929C50.8123 15.7929 50.8123 15.7979 50.8105 15.8049Z" fill="#177FBF"/>
<g opacity="0.5">
<path d="M50.6191 16.5078V16.6195C50.6191 16.681 50.6754 16.7312 50.7441 16.7312H50.8753C50.944 16.7312 51.0003 16.681 51.0003 16.6195C51.0003 16.558 51.0003 16.5078 51.0003 16.5078H50.6194H50.6191Z" fill="#27A3E0"/>
</g>
<g style="mix-blend-mode:multiply" opacity="0.5">
<path d="M50.7891 15.8142C50.7891 15.8265 50.7699 15.8691 50.8136 15.8391C50.8215 15.8336 50.8323 15.8286 50.8449 15.8243C50.8814 15.8115 50.934 15.8038 50.9842 15.8059C51.0052 15.8067 51.0259 15.8092 51.0446 15.8137C51.0171 15.7985 50.9867 15.7875 50.9536 15.7826C50.9365 15.7729 50.9176 15.7677 50.8969 15.7677C50.8969 15.7677 50.8474 15.7632 50.8152 15.7675C50.814 15.7675 50.8127 15.7679 50.8118 15.7679V15.7791H50.7832C50.7864 15.7989 50.7893 15.8144 50.7893 15.8144L50.7891 15.8142Z" fill="#E09F2B"/>
</g>
<path d="M51 16.4609H50.6191V16.5305H51V16.4609Z" fill="#16569B"/>
<path d="M52.6992 16.3588C52.5983 16.5591 52.2737 16.7216 51.9741 16.7216C51.6745 16.7216 51.5133 16.5593 51.6139 16.3588C51.7148 16.1586 52.0394 15.9961 52.339 15.9961C52.6386 15.9961 52.7998 16.1584 52.6992 16.3588Z" stroke="#3C4949" stroke-width="2" stroke-linecap="round" stroke-linejoin="round"/>
<path d="M50.2637 14.8197C50.195 14.9027 50.1554 14.9799 50.17 15.0288C50.1887 15.0918 50.2886 15.0747 50.6977 15.0547C51.1067 15.0346 51.2816 14.9182 51.1974 14.7225C51.147 14.6054 50.2637 14.8199 50.2637 14.8199V14.8197Z" fill="#D88916"/>
<path d="M50.2246 15.0509C50.2428 15.2844 50.3059 15.3474 50.4051 15.3474C50.4866 15.3474 50.5544 15.2442 50.5515 15.22C50.5485 15.1958 50.5193 15.0536 50.4959 15.0455C50.4725 15.0375 50.2246 15.0509 50.2246 15.0509Z" fill="#8E3925"/>
<path d="M50.4573 15.2975C50.4411 15.2678 50.4312 15.3623 50.431 15.351C50.4269 15.1523 50.2412 15.3002 50.2266 15.0803C50.2142 14.8926 50.2124 14.8912 50.2068 14.7999C50.1957 14.6188 50.3105 14.4266 50.7324 14.4297C50.9674 14.4314 51.0275 14.515 51.0806 14.6248C51.1792 14.8292 51.0996 15.0919 51.0996 15.0919L50.4571 15.2977L50.4573 15.2975Z" fill="#8E3925"/>
<path d="M50.8373 15.7918C50.8373 15.7918 50.8405 15.8682 50.7048 15.8682C50.569 15.8682 50.4844 15.7918 50.4844 15.7918V15.4125L50.8373 15.3945V15.7918Z" fill="#FFB287"/>
<path d="M50.8373 15.7107C50.7448 15.721 50.4869 15.6907 50.4869 15.6349C50.4869 15.5792 50.4844 15.332 50.4844 15.332L50.8373 15.3343V15.7109V15.7107Z" fill="#23385C"/>
<path d="M51.1417 15.2119C51.1417 15.2864 51.0708 15.4582 51.0269 15.5096C51.0082 15.5315 50.9823 15.5813 50.9227 15.598C50.8684 15.6131 50.8364 15.6236 50.8364 15.6504C50.8364 15.6796 50.7698 15.6232 50.7471 15.6232C50.4765 15.6232 50.3428 15.3558 50.3428 15.1737L50.4261 14.9348C50.4261 14.7354 50.5704 14.5921 50.7802 14.5938C50.99 14.5954 51.1592 14.7265 51.1592 14.926L51.1415 15.2119H51.1417Z" fill="#23385C"/>
<path d="M51.1651 14.9172L51.1624 14.9963L51.1609 15.0413L51.155 15.211C51.1469 15.4202 51.0958 15.6132 50.8189 15.6112C50.5427 15.6095 50.4687 15.3027 50.4761 15.1037L50.4891 14.9307C50.4891 14.9234 50.4891 14.916 50.4896 14.9092C50.4952 14.6497 50.61 14.5547 50.8133 14.5547C51.067 14.5547 51.1573 14.6912 51.1651 14.8671C51.1658 14.8834 51.1658 14.9001 51.1651 14.917V14.9172Z" fill="#FFB287"/>
<path d="M50.9191 15.2611C50.9585 15.2611 50.9921 15.2406 50.9903 15.22C50.9896 15.2124 50.9815 15.2033 50.966 15.2099C50.959 15.213 50.9396 15.2165 50.9194 15.2165C50.8991 15.2165 50.8881 15.2126 50.8764 15.2095C50.8514 15.2027 50.8435 15.2115 50.8428 15.2192C50.841 15.24 50.8798 15.2609 50.9191 15.2613V15.2611Z" fill="#23385C"/>
<path d="M50.48 15.0872C50.4858 15.1615 50.4446 15.2253 50.3879 15.2296C50.3314 15.234 50.281 15.1774 50.2751 15.1031C50.2693 15.0287 50.301 14.9709 50.3568 14.9618C50.4126 14.9528 50.4741 15.0128 50.4797 15.0872H50.48Z" fill="#23385C"/>
<path d="M50.7197 15.0707C50.7197 15.0881 50.7354 15.1025 50.7546 15.1027C50.7739 15.1027 50.7895 15.0887 50.7895 15.0711C50.7895 15.0534 50.7739 15.0393 50.7546 15.0391C50.7354 15.0391 50.7197 15.053 50.7197 15.0707Z" fill="#422B27" stroke="#422B27" stroke-width="1.11" stroke-miterlimit="10"/>
<path d="M51.0293 15.0746C51.0293 15.0922 51.045 15.1064 51.0642 15.1066C51.0834 15.1066 51.0991 15.0926 51.0991 15.075C51.0991 15.0573 51.0834 15.0432 51.0642 15.043C51.045 15.043 51.0293 15.0569 51.0293 15.0746Z" fill="#422B27" stroke="#422B27" stroke-width="1.11" stroke-miterlimit="10"/>
<path d="M50.3945 14.9048C50.3945 14.7919 50.4497 14.6911 50.5356 14.6251C50.4942 14.5778 50.4791 14.5074 50.4879 14.5008C50.5026 14.4901 50.6921 14.3608 50.9159 14.4795C51.0692 14.5609 51.1392 14.6154 51.1131 14.6732C51.1133 14.6738 51.1137 14.6744 51.1142 14.6753C51.1137 14.6748 51.1133 14.6744 51.1128 14.674C51.0892 14.7252 51.0365 14.7587 50.9897 14.7587C50.7936 14.7587 50.7979 14.6532 50.6518 14.6635C50.5949 14.6674 50.5163 14.6808 50.5163 14.8115C50.5163 14.9534 50.483 15.1212 50.4818 15.1212C50.4359 15.1239 50.4355 15.0966 50.4355 15.0966C50.4355 15.0215 50.4233 14.9796 50.3711 14.9571L50.3947 14.905L50.3945 14.9048Z" fill="#8E3925"/>
<path d="M50.8855 15.4245C50.8305 15.4245 50.7916 15.4172 50.77 15.4032C50.7592 15.3962 50.7565 15.3826 50.7641 15.3727C50.7718 15.3627 50.7866 15.3603 50.7974 15.3673C50.8103 15.3755 50.8431 15.3805 50.8855 15.3805C50.9086 15.3805 50.9411 15.3791 50.9593 15.3673C50.9701 15.3603 50.985 15.3627 50.9926 15.3727C51.0003 15.3826 50.9976 15.3962 50.9868 15.4032C50.9579 15.422 50.9174 15.4245 50.8855 15.4245Z" fill="#23385C"/>
<g style="mix-blend-mode:multiply" opacity="0.6">
<path d="M51.1652 14.8968C51.1652 14.8968 51.1652 14.8951 51.1652 14.8943C51.1645 14.7075 51.0779 14.5586 50.8129 14.5586C50.6099 14.5586 50.516 14.7176 50.5 14.9868C50.5034 14.9486 50.5761 14.9348 50.6718 14.9209C51.072 14.9009 51.1551 15.0297 51.1551 15.0297L51.1634 14.9544L51.1645 14.9211C51.1647 14.9131 51.165 14.905 51.165 14.897L51.1652 14.8968Z" fill="#C67560"/>
</g>
<path d="M50.2223 15.0307C50.2223 15.0468 50.195 15.0183 50.1905 15.0055C50.184 14.9875 50.175 14.9706 50.1892 14.957C50.1968 14.9495 50.381 14.7773 50.8785 14.7773C51.0959 14.7773 51.1607 14.7959 51.1815 14.8575C51.2019 14.9186 51.161 14.9706 51.1628 14.9605C51.1659 14.9433 51.1691 14.9045 51.1517 14.8845C51.1515 14.8841 51.1306 14.8459 50.8785 14.8459C50.4127 14.8459 50.2452 15.0026 50.2437 15.0042C50.2362 15.0113 50.2211 15.022 50.2225 15.0307H50.2223Z" fill="#754559"/>
<path d="M51.1835 14.7993C51.1657 14.7869 51.1475 14.7844 51.1106 14.7849C51.097 14.7849 51.0808 14.7855 51.0615 14.7861C51.0354 14.7869 51.0029 14.7878 50.9624 14.7878C50.7886 14.7878 50.6113 14.8111 50.4683 14.8507C50.324 14.8908 50.2151 14.9581 50.1777 15.0169C50.1664 15.0246 50.1536 14.9509 50.1471 14.8743C50.1451 14.8491 50.1435 14.8235 50.143 14.8003C50.1426 14.7952 50.1426 14.7902 50.1426 14.7853C50.1426 14.7485 50.1475 14.7122 50.1574 14.6771C50.1946 14.5478 50.3015 14.4347 50.4897 14.381C50.5111 14.3748 50.5334 14.3695 50.5568 14.3649C50.5698 14.3624 50.5831 14.3602 50.5968 14.3581C50.5978 14.3581 50.5989 14.3575 50.5989 14.3575C50.6266 14.3538 50.6545 14.3509 50.6844 14.349C50.686 14.349 50.6876 14.3488 50.6894 14.3486C50.7006 14.348 50.7114 14.3478 50.7222 14.3478C50.7891 14.347 50.8211 14.35 50.8719 14.3655C50.9064 14.3761 50.9266 14.4013 50.9302 14.4027C51.0608 14.4465 51.1191 14.5088 51.1601 14.5939C51.2109 14.6988 51.2069 14.7972 51.1835 14.7989V14.7993Z" fill="#F7C52C"/>
<path d="M51.11 14.5931C51.0691 14.508 50.9716 14.405 50.8503 14.3565C50.8469 14.355 50.8433 14.354 50.8397 14.3528C50.7888 14.3369 50.7231 14.3398 50.6562 14.3406C50.6454 14.3406 50.6346 14.341 50.6233 14.3416C50.5999 14.3431 50.5763 14.3468 50.5547 14.3493C50.5765 14.3513 50.5981 14.3585 50.6078 14.3623C50.6882 14.393 50.7544 14.4892 50.7881 14.5594C50.8424 14.6711 50.8365 14.782 50.8118 14.7839L50.9124 14.7863C51.0657 14.7863 51.1004 14.7748 51.1334 14.7979C51.1569 14.7963 51.1609 14.6978 51.11 14.5927V14.5931Z" fill="#FFE02C"/>
<path d="M50.1696 15.0288C50.2015 14.9633 50.3235 14.8902 50.4681 14.8502C50.6108 14.8105 50.7882 14.7872 50.9622 14.7872C51.1155 14.7872 51.1501 14.7756 51.1832 14.7988C51.2066 14.7971 51.2107 14.6986 51.1598 14.5935C51.1188 14.5085 51.0639 14.4461 50.9331 14.4023C51.0441 14.4651 51.068 14.6373 51.0704 14.6897C51.0716 14.7108 50.9439 14.6926 50.5678 14.7771C50.2679 14.8444 50.1072 14.9466 50.1696 15.0285V15.0288Z" fill="#F7C52C"/>
<path d="M51.4313 14.7447C51.4313 14.7447 51.2373 14.785 51.1751 14.8001C51.1751 14.8001 51.1607 14.7901 51.1157 14.7809C51.0774 14.773 51.0173 14.7658 50.9253 14.7658C50.8719 14.7658 50.7906 14.7786 50.7161 14.7928C50.618 14.8116 50.5309 14.8335 50.5309 14.8335L50.5234 14.7877C50.5234 14.7877 50.5784 14.753 50.7161 14.7228C50.8089 14.7026 50.9394 14.6844 51.1159 14.6805C51.1391 14.6799 51.163 14.6797 51.1877 14.6797C51.3507 14.6797 51.4176 14.6896 51.4297 14.7041C51.4351 14.7105 51.4313 14.7445 51.4313 14.7445V14.7447Z" fill="#FFE536"/>
<path d="M51.1874 14.7148C50.694 14.7148 50.5254 14.8352 50.5254 14.8352C50.5254 14.8352 50.7253 14.8009 50.9252 14.8009C51.1251 14.8009 51.1751 14.8354 51.1751 14.8354C51.2937 14.8067 51.6809 14.7151 51.1874 14.7151V14.7148Z" fill="#D88916"/>
<path d="M50.4137 15.085C50.4175 15.151 50.3896 15.2076 50.3509 15.2115C50.3124 15.2154 50.278 15.1651 50.2739 15.099C50.2699 15.0329 50.2915 14.9815 50.3297 14.9735C50.368 14.9654 50.4097 15.0189 50.4137 15.0847V15.085Z" fill="#23385C"/>
<path d="M52.8875 19.3904C52.7779 19.3904 52.6775 19.3237 52.6471 19.2219L52.2687 17.9536H51.1654C51.0277 17.9536 50.916 17.8512 50.916 17.7249C50.916 17.5985 51.0277 17.4961 51.1654 17.4961H52.4591C52.5715 17.4961 52.6701 17.5651 52.6998 17.6644L53.1284 19.1009C53.1646 19.2227 53.0865 19.3485 52.9537 19.3819C52.9316 19.3875 52.9096 19.3902 52.8878 19.3902L52.8875 19.3904Z" fill="#16569B"/>
<path d="M52.2865 18.9025C52.2865 18.9872 52.1917 19.0111 52.0769 19.0398C52.0544 19.0456 52.0333 19.0479 52.0108 19.0479C51.9135 19.0479 51.8449 19.0741 51.8088 19.0078C51.805 18.9998 51.8014 18.9907 51.7976 18.9793L51.4896 17.9536H50.3861C50.249 17.9536 50.1367 17.8508 50.1367 17.7249C50.1367 17.5989 50.2488 17.4961 50.3861 17.4961H51.6792C51.7926 17.4961 51.8899 17.5646 51.9198 17.6642L52.2789 18.8581C52.2838 18.874 52.2863 18.8891 52.2863 18.9027L52.2865 18.9025Z" fill="#16569B"/>
<path d="M52.2863 18.9035C52.2863 18.9435 52.2651 18.9697 52.2302 18.9891C52.1915 19.0121 52.1368 19.0257 52.0769 19.0406C52.0544 19.0463 52.0333 19.0486 52.0107 19.0486C51.9783 19.0486 51.9497 19.0509 51.9234 19.0521C51.8709 19.0554 51.8325 19.0532 51.8086 19.0086V19.0053C51.8086 18.9823 51.8248 18.9619 51.8935 18.939C51.9245 18.9276 51.9695 18.915 52.0281 18.9002C52.0967 18.883 52.1503 18.8727 52.1902 18.8692C52.2536 18.8624 52.2836 18.8727 52.2863 18.9035Z" fill="#1D4366"/>
<path d="M50.1679 16.0289L50.3372 16.3019L50.4454 16.4786L50.5679 16.6578C50.5949 16.7022 50.6429 16.7346 50.696 16.7493C50.7302 16.7586 50.7669 16.7604 50.8016 16.7534L51.6016 16.5818C51.6653 16.5686 51.7054 16.5104 51.691 16.452C51.6766 16.3935 51.6131 16.3568 51.5494 16.3698L50.7658 16.5378L50.5875 16.2676L50.5589 16.2209L50.3741 15.9226C50.3421 15.8703 50.2698 15.8518 50.2129 15.8811C50.1557 15.9104 50.1355 15.9767 50.1676 16.0289H50.1679Z" fill="#FFA68A"/>
<path d="M50.4056 15.9678C50.4488 16.0362 50.6613 16.3723 50.6613 16.3723L50.3761 16.5451L50.1642 16.2436C50.1642 16.2436 49.9349 15.9327 50.1649 15.8235C50.2912 15.7636 50.4056 15.9678 50.4056 15.9678Z" fill="#FFE02C"/>
<path d="M51.164 17.3432V17.6519H50.0605V17.0859L50.2992 17.1107L50.3782 17.4452L51.164 17.3432Z" fill="#16569B"/>
<path d="M52.5185 19.2067L52.0147 19.3004C51.9724 19.3118 51.9287 19.2191 51.9161 19.1402C51.9148 19.1321 51.9136 19.1253 51.9136 19.1173C51.9136 19.116 51.9123 19.116 51.9112 19.115L51.8911 19.0304C51.8812 18.9994 51.876 18.9664 51.8711 18.9447C51.9022 18.9333 51.9697 18.9137 52.0282 18.8988C52.0969 18.8817 52.1505 18.8714 52.1903 18.8679C52.2115 18.8621 52.2252 18.8941 52.2326 18.9205C52.2376 18.9377 52.24 18.9515 52.24 18.9515C52.4607 18.892 52.5818 18.9754 52.6029 19.02C52.6241 19.0646 52.634 19.107 52.634 19.107C52.654 19.1677 52.5829 19.1881 52.5181 19.2065L52.5185 19.2067Z" fill="#5E3A32"/>
<path d="M52.2328 18.9196C52.0633 18.9448 51.9823 19.0396 51.9161 19.1391C51.9148 19.1311 51.9136 19.1243 51.9136 19.1162C51.9136 19.115 51.9123 19.115 51.9112 19.1139L51.8911 19.0293C51.8812 18.9983 51.876 18.9653 51.8711 18.9436C51.9022 18.9322 51.9697 18.9126 52.0282 18.8978C52.0969 18.8806 52.1698 18.8668 52.2097 18.8633C52.2135 18.8759 52.2252 18.8932 52.2326 18.9194L52.2328 18.9196Z" fill="#3D2723"/>
<path d="M52.6281 19.1151C52.6474 19.1754 52.5734 19.1942 52.5076 19.212L52.0358 19.3313C51.9701 19.3491 51.9255 19.2314 51.9915 19.2136L52.3672 19.1151C52.4329 19.0974 52.6058 19.0464 52.6249 19.1069L52.6281 19.1151Z" fill="#3D2723"/>
<path d="M52.1433 19.3488C52.1161 19.3488 52.0911 19.3323 52.0835 19.3073C52.074 19.277 52.0934 19.2454 52.1264 19.2367L52.4421 19.1545C52.4751 19.1459 52.5096 19.1636 52.519 19.194C52.5285 19.2243 52.5091 19.2559 52.476 19.2646L52.1604 19.3468C52.1548 19.3482 52.149 19.349 52.1433 19.349V19.3488Z" fill="#343A3D"/>
<path d="M52.4584 19.6744C52.4316 19.6744 52.4066 19.6583 52.3988 19.6336L52.2819 19.2727C52.272 19.2423 52.2909 19.2105 52.324 19.2016C52.3571 19.1925 52.3918 19.2099 52.4015 19.2402L52.5183 19.6011C52.5282 19.6315 52.5093 19.6633 52.4762 19.6722C52.4703 19.6738 52.4643 19.6746 52.4584 19.6746V19.6744Z" fill="#343A3D"/>
<path d="M50.4897 18.0195H49.5156V18.4702H50.4897V18.0195Z" fill="#21211F"/>
<path d="M53.8825 18.1838C53.8494 18.1838 53.8163 18.1719 53.7918 18.1481L52.1708 16.5757C52.1235 16.5299 52.1257 16.4574 52.1757 16.414C52.2257 16.3707 52.3047 16.3727 52.352 16.4186L53.973 17.991C54.0203 18.0368 54.018 18.1093 53.968 18.1527C53.9439 18.1735 53.9131 18.1838 53.8825 18.1838Z" fill="#3C4949"/>
<path d="M53.1365 19.525C53.0904 19.538 53.0386 19.5148 53.0215 19.4731L52.2807 17.6707C52.2636 17.6292 52.2741 17.5667 52.3038 17.5318L52.6086 17.1746C52.6384 17.1397 52.687 17.1397 52.7167 17.1748L53.2239 17.776C53.2536 17.8111 53.2819 17.8759 53.2871 17.9201L53.4562 19.3517C53.4614 19.3959 53.4278 19.4426 53.3817 19.4558L53.1365 19.5252V19.525Z" fill="#3B3F42"/>
<path d="M56.8205 18.8203H53.1611V20.0164H56.8205V18.8203Z" fill="#738086"/>
<path opacity="0.5" d="M56.7441 20.0122H56.1455L55.8535 18.8242H56.4519L56.7441 20.0122Z" fill="#3B3F42"/>
<path opacity="0.5" d="M54.7733 20.0083H54.1748L53.8828 18.8203H54.4814L54.7733 20.0083Z" fill="#3B3F42"/>
<path d="M54.9409 13.1016H54.207V22.3028H54.9409V13.1016Z" fill="#3B3F42"/>
<path d="M50.6346 18.3242H48.728C48.485 18.3242 48.2881 18.5048 48.2881 18.7276V19.8242C48.2881 20.047 48.485 20.2276 48.728 20.2276H50.6346C50.8776 20.2276 51.0745 20.047 51.0745 19.8242V18.7276C51.0745 18.5048 50.8776 18.3242 50.6346 18.3242Z" fill="#3C4949"/>
<path d="M50.0524 20.56C50.0753 20.6231 50.1532 20.6748 50.2259 20.6748H53.2561C53.3286 20.6748 53.3811 20.6207 53.3723 20.5546L53.2622 19.718C53.2534 19.6519 53.2327 19.5448 53.2159 19.4802L53.0171 18.7138C53.0002 18.6489 52.9547 18.6419 52.9156 18.6981L52.3607 19.4959C52.3217 19.552 52.2303 19.5978 52.1578 19.5978H49.8361C49.7636 19.5978 49.7228 19.6495 49.7456 19.7126L50.0522 20.5598L50.0524 20.56Z" fill="#3C4949"/>
<path d="M48.0802 18.125H48.8114C49.0063 18.125 49.2854 18.2734 49.4322 18.4549L50.9434 20.5293L50.9961 20.6011C51.1426 20.7826 50.6773 20.5759 50.4821 20.5759L49.1508 20.7772C49.0995 20.6851 49.041 20.6015 48.9757 20.5293C48.835 20.3713 48.6639 20.2648 48.4771 20.2289C48.4309 20.2192 48.3837 20.2148 48.3357 20.2148H47.7284L47.7266 18.6257C47.7266 18.3505 47.8855 18.125 48.0804 18.125H48.0802Z" fill="#FFC943"/>
<path d="M53.4871 20.2018C53.3755 20.2018 53.2798 20.1242 53.2686 20.0201C53.267 20.0049 53.1004 18.4814 52.7956 16.9796C52.2258 14.1721 51.7245 14.0909 51.6692 14.0909C51.5476 14.0909 51.4492 14.0007 51.4492 13.8892C51.4492 13.7777 51.5476 13.6875 51.6692 13.6875C52.046 13.6875 52.3571 14.0333 52.6484 14.7758C52.8512 15.2928 53.0464 16.0102 53.2285 16.9077C53.5367 18.4262 53.7046 19.9648 53.7064 19.9801C53.7183 20.091 53.6301 20.1897 53.5092 20.2008C53.5018 20.2014 53.4946 20.2018 53.4871 20.2018Z" fill="#738086"/>
<path d="M53.1757 20.2018C53.064 20.2018 52.9684 20.1242 52.9571 20.0201C52.9555 20.0049 52.7889 18.4814 52.4841 16.9796C51.9144 14.1721 51.4131 14.0909 51.3577 14.0909H48.4533C48.3318 14.0909 48.2334 14.0007 48.2334 13.8892C48.2334 13.7777 48.3318 13.6875 48.4533 13.6875H51.3577C51.7345 13.6875 52.0456 14.0333 52.3369 14.7758C52.5397 15.2928 52.7349 16.0102 52.917 16.9077C53.2252 18.4262 53.3931 19.9648 53.3949 19.9801C53.4069 20.091 53.3186 20.1897 53.1977 20.2008C53.1903 20.2014 53.1831 20.2018 53.1757 20.2018Z" fill="#3C4949"/>
<path d="M49.3965 17.9448C49.3965 18.0335 49.4757 18.1062 49.5725 18.1062H50.7318C50.8286 18.1062 50.9079 18.0335 50.9079 17.9448V17.8884C50.9079 17.7996 50.8304 17.7117 50.7359 17.6929L49.5685 17.4606C49.4739 17.4418 49.3965 17.499 49.3965 17.5878V17.9446V17.9448Z" fill="#3C4949"/>
<path d="M48.8997 13.9609H48.4326V14.8124H48.8997V13.9609Z" fill="#3C4949"/>
<path d="M49.3917 15.582C49.3066 15.582 49.2432 15.6475 49.2506 15.7274L49.3854 17.1856C49.3929 17.2655 49.4593 17.3312 49.5329 17.3312C49.6065 17.3312 49.6824 17.267 49.7013 17.1887L49.8771 16.4578C49.896 16.3794 49.8816 16.2555 49.8453 16.1824L49.6126 15.7148C49.5763 15.6417 49.4768 15.582 49.392 15.582H49.3917Z" fill="#3C4949"/>
<path d="M48.6641 20.5266C48.7296 20.5989 48.7879 20.6825 48.8392 20.7746C48.9637 20.999 49.0425 21.2765 49.0558 21.5785H52.6944C52.6933 21.5527 52.6933 21.5277 52.6933 21.5019C52.6933 20.628 53.1937 20.8218 53.8121 20.8218C53.8227 20.8218 53.8326 20.8225 53.8432 20.8229V19.9258H52.7921L52.1726 20.5268H48.6641V20.5266Z" fill="#23385C"/>
<path d="M47.7689 18.125H48.5001C48.695 18.125 48.9741 18.2734 49.1209 18.4549L50.6321 20.5293L50.6848 20.6011C50.8313 20.7826 50.366 20.5759 50.1708 20.5759L48.8395 20.7772C48.7882 20.6851 48.7297 20.6015 48.6644 20.5293C48.5237 20.3713 48.3526 20.2648 48.1658 20.2289C48.1196 20.2192 48.0724 20.2148 48.0244 20.2148H47.4168L47.415 18.6257C47.415 18.3505 47.574 18.125 47.7689 18.125Z" fill="#23385C"/>
<path d="M51.8682 21.6859C51.9001 20.8636 52.2763 20.0908 52.7587 19.9814C52.8048 19.9702 52.8521 19.9648 52.9001 19.9648H53.8467V21.5788L51.8682 21.6859Z" fill="#8C6320"/>
<path d="M51.8606 21.6794C51.7634 21.6794 51.6846 21.6071 51.6846 21.5179V21.2778C51.6846 21.2756 51.6846 21.2733 51.6846 21.271C51.7201 20.4955 52.1431 19.8778 52.7135 19.7678C52.7586 19.7585 52.8056 19.7529 52.8576 19.7506C52.8691 19.75 52.881 19.75 52.8921 19.75H53.1309C53.2281 19.75 53.3069 19.8223 53.3069 19.9115C53.3069 20.0006 53.2281 20.0729 53.1309 20.0729H52.8921C52.8873 20.0729 52.8824 20.0729 52.8777 20.0729C52.8765 20.0729 52.8752 20.0729 52.8741 20.0729C52.8425 20.0741 52.8153 20.0772 52.7905 20.0824C52.7894 20.0826 52.7881 20.0828 52.7869 20.0832C52.3874 20.1594 52.065 20.6741 52.0362 21.2811V21.5177C52.0362 21.6069 51.9574 21.6792 51.8602 21.6792L51.8606 21.6794Z" fill="#3B3F42"/>
<path d="M53.7741 20.0729H53.1321C53.0348 20.0729 52.9561 20.0006 52.9561 19.9115C52.9561 19.8223 53.0348 19.75 53.1321 19.75H53.7741C53.8714 19.75 53.9501 19.8223 53.9501 19.9115C53.9501 20.0006 53.8714 20.0729 53.7741 20.0729Z" fill="#485959"/>
<path d="M54.0513 20.0729H53.7737C53.6764 20.0729 53.5977 20.0006 53.5977 19.9115C53.5977 19.8223 53.6764 19.75 53.7737 19.75H54.0513C54.1485 19.75 54.2273 19.8223 54.2273 19.9115C54.2273 20.0006 54.1485 20.0729 54.0513 20.0729Z" fill="#3C4949"/>
<path d="M53.7459 20.2697C53.7563 20.2697 53.7669 20.2702 53.777 20.2708C54.2441 20.2939 54.6178 20.8363 54.6178 21.5029C54.6178 22.1696 54.2274 22.7366 53.7457 22.7366H53.0596V20.2706L53.7457 20.2695L53.7459 20.2697Z" fill="#333332"/>
<path d="M53.0602 22.5151C52.7415 22.5151 52.4535 22.0828 52.4313 21.5712C52.4301 21.5458 52.4297 21.5235 52.4297 21.5034C52.4297 20.9648 52.7244 20.4922 53.0602 20.4922C53.0661 20.4922 53.0724 20.4926 53.0782 20.4928C53.374 20.5075 53.6903 20.9169 53.6903 21.5034C53.6903 22.0425 53.3959 22.5153 53.0602 22.5153V22.5151Z" fill="#BCBDBF"/>
<path d="M53.058 20.7132C53.0603 20.7132 53.0625 20.7134 53.065 20.7136C53.126 20.7167 53.2093 20.7824 53.2768 20.8813C53.3855 21.0403 53.4481 21.2667 53.4481 21.5029C53.4481 21.7391 53.3835 21.9743 53.2705 22.1339C53.2023 22.2305 53.1195 22.2929 53.0598 22.2929C52.9391 22.2929 52.6931 22.0348 52.6726 21.5626C52.6717 21.5397 52.6713 21.5203 52.6713 21.5029C52.6713 21.2618 52.7361 21.032 52.8489 20.8724C52.9164 20.7768 52.9983 20.7147 53.058 20.7134V20.7132ZM53.0598 20.2695C52.5781 20.2695 52.1875 20.8216 52.1875 21.5027C52.1875 21.5283 52.1882 21.5537 52.1893 21.5793C52.2172 22.2249 52.5963 22.7364 53.06 22.7364C53.5238 22.7364 53.9321 22.1839 53.9321 21.5027C53.9321 20.8216 53.5584 20.2935 53.0913 20.2706C53.081 20.2702 53.0704 20.2695 53.0603 20.2695H53.0598Z" fill="#21211F"/>
<path d="M52.8691 14.8133H53.3831C53.4378 14.8133 53.4826 14.7499 53.4826 14.6725V13.9377C53.4826 13.8603 53.4378 13.7969 53.3831 13.7969H52.8691V14.8133Z" fill="#FF573B"/>
<path d="M54.9411 13.1016H54.0654V13.519H54.9411V13.1016Z" fill="#3B3F42"/>
<path d="M54.9094 15.7072C54.8959 15.7072 54.8824 15.7037 54.8702 15.6963L54.6672 15.5718C54.6348 15.5519 54.626 15.5117 54.6476 15.482C54.6692 15.4522 54.7131 15.4442 54.7455 15.464L54.9486 15.5885C54.981 15.6083 54.9898 15.6486 54.9681 15.6783C54.9546 15.6969 54.9321 15.707 54.9094 15.707V15.7072Z" fill="#23385C"/>
<path d="M54.9094 15.422C54.8959 15.422 54.8824 15.4185 54.8702 15.4111L54.6672 15.2866C54.6348 15.2668 54.626 15.2265 54.6476 15.1968C54.6692 15.1671 54.7131 15.159 54.7455 15.1788L54.9486 15.3033C54.981 15.3232 54.9898 15.3634 54.9681 15.3931C54.9546 15.4117 54.9321 15.4218 54.9094 15.4218V15.422Z" fill="#23385C"/>
<path d="M54.9094 15.133C54.8959 15.133 54.8824 15.1295 54.8702 15.122L54.6672 14.9975C54.6348 14.9777 54.626 14.9375 54.6476 14.9077C54.6692 14.878 54.7131 14.87 54.7455 14.8898L54.9486 15.0143C54.981 15.0341 54.9898 15.0744 54.9681 15.1041C54.9546 15.1227 54.9321 15.1328 54.9094 15.1328V15.133Z" fill="#23385C"/>
<path d="M54.9094 14.8478C54.8959 14.8478 54.8824 14.8443 54.8702 14.8369L54.6672 14.7124C54.6348 14.6926 54.626 14.6523 54.6476 14.6226C54.6692 14.5928 54.7131 14.5848 54.7455 14.6046L54.9486 14.7291C54.981 14.7489 54.9898 14.7892 54.9681 14.8189C54.9546 14.8375 54.9321 14.8476 54.9094 14.8476V14.8478Z" fill="#23385C"/>
<path d="M54.9094 14.5627C54.8959 14.5627 54.8824 14.5592 54.8702 14.5517L54.6672 14.4272C54.6348 14.4074 54.626 14.3672 54.6476 14.3374C54.6692 14.3077 54.7131 14.2996 54.7455 14.3195L54.9486 14.444C54.981 14.4638 54.9898 14.504 54.9681 14.5338C54.9546 14.5524 54.9321 14.5625 54.9094 14.5625V14.5627Z" fill="#23385C"/>
<path d="M57.5473 13.1016H56.8135V22.3028H57.5473V13.1016Z" fill="#738086"/>
<path d="M57.1606 13.1016H56.4268V22.3028H57.1606V13.1016Z" fill="#3B3F42"/>
<path d="M57.1608 13.1016H56.2852V13.519H57.1608V13.1016Z" fill="#3B3F42"/>
<path d="M52.832 14.8133H52.9592C53.0139 14.8133 53.0587 14.7499 53.0587 14.6725V13.9377C53.0587 13.8603 53.0139 13.7969 52.9592 13.7969H52.832V14.8133Z" fill="#D33131"/>
<path d="M52.8656 13.7969H52.6297C52.5712 13.7969 52.5234 13.8646 52.5234 13.9472V14.6651C52.5234 14.7476 52.5712 14.8154 52.6297 14.8154H52.8656V13.7969Z" fill="#3B3F42"/>
<path d="M55.5618 17.7383H54.7881V18.3273H55.5618V17.7383Z" fill="#3B3F42"/>
<path d="M57.5471 17.7383H56.7734V18.3273H57.5471V17.7383Z" fill="#3B3F42"/>
<path opacity="0.5" d="M57.5471 19.2852H56.7734V20.5303H57.5471V19.2852Z" fill="#3B3F42"/>
<path d="M54.2705 20.1209C54.2705 20.4155 54.5332 20.6564 54.8544 20.6564H57.9299C58.2511 20.6564 58.5138 20.4155 58.5138 20.1209V18.3715C58.5138 18.0769 58.2511 17.8359 57.9299 17.8359H54.8544C54.5332 17.8359 54.2705 18.0769 54.2705 18.3715V20.1209Z" stroke="#485959" stroke-width="2" stroke-linecap="round" stroke-linejoin="round"/>
<path d="M58.514 19.3487H54.2707C54.1492 19.3487 54.0508 19.2585 54.0508 19.147C54.0508 19.0355 54.1492 18.9453 54.2707 18.9453H58.514C58.6356 18.9453 58.734 19.0355 58.734 19.147C58.734 19.2585 58.6356 19.3487 58.514 19.3487Z" fill="#485959"/>
<path d="M58.2272 18.4766H57.6973V21.0299H58.2272V18.4766Z" fill="#FED500"/>
<path d="M57.7012 18.4766H57.2881V21.0299H57.7012V18.4766Z" fill="#23385C"/>
<path d="M61.5202 20.7148H57.2881V21.0314H61.5202V20.7148Z" fill="#23385C"/>
<path d="M57.7015 18.4766H56.9346V18.945H57.7015V18.4766Z" fill="#23385C"/>
<path d="M56.0817 18.4766H55.5518V21.0299H56.0817V18.4766Z" fill="#FED500"/>
<path d="M55.5557 18.4766H55.1426V21.0299H55.5557V18.4766Z" fill="#23385C"/>
<path d="M59.3746 20.7148H55.1426V21.0314H59.3746V20.7148Z" fill="#23385C"/>
<path d="M55.556 18.4766H54.7891V18.945H55.556V18.4766Z" fill="#23385C"/>
<path d="M47.8398 19.1573C47.8398 19.3716 47.9628 19.5452 48.1143 19.5452C48.2601 19.5452 48.3792 19.3844 48.388 19.1814C48.3882 19.1734 48.3884 19.1653 48.3884 19.1573C48.3884 18.943 48.2658 18.7695 48.1143 18.7695C48.112 18.7695 48.1098 18.7695 48.1075 18.7695C47.9592 18.7745 47.8398 18.9461 47.8398 19.1573Z" fill="#8D7120"/>
</g>
<g clip-path="url(#clip1_859_8624)">
<path d="M57.7872 18.5273H55.9473V20.738H57.7872V18.5273Z" fill="#FFD18D"/>
<path d="M59.3312 18.5273H57.6748V20.738H59.3312V18.5273Z" fill="#23385C"/>
<g style="mix-blend-mode:multiply" opacity="0.5">
<path d="M59.3282 19.6133H55.9463V19.6575H59.3282V19.6133Z" fill="#C9804F"/>
</g>
<path d="M56.9409 20.5117H56.7354V20.7373H56.9409V20.5117Z" fill="#A58258"/>
<path opacity="0.8" d="M59.2449 19.7227H59.0527V19.885H59.2449V19.7227Z" fill="#C2D8EF"/>
<g opacity="0.2">
<path d="M58.3959 19.7227H58.0752V19.885H58.3959V19.7227Z" fill="#333332"/>
</g>
<g opacity="0.2">
<path d="M58.0304 19.7227H57.8652V19.885H58.0304V19.7227Z" fill="#333332"/>
</g>
<g opacity="0.2">
<path d="M58.3959 18.6016H58.0752V18.7639H58.3959V18.6016Z" fill="#333332"/>
</g>
<g opacity="0.2">
<path d="M58.0304 18.6016H57.8652V18.7639H58.0304V18.6016Z" fill="#333332"/>
</g>
<path opacity="0.8" d="M59.2449 18.5938H59.0527V18.7561H59.2449V18.5938Z" fill="#C2D8EF"/>
<path d="M56.9224 19.4336H56.7168V19.6592H56.9224V19.4336Z" fill="#A58258"/>
<path d="M61.0813 18.5273H59.1357V20.738H61.0813V18.5273Z" fill="#BA6145"/>
<path d="M62.1585 18.5273H60.8633V20.738H62.1585V18.5273Z" fill="#23385C"/>
<g style="mix-blend-mode:multiply" opacity="0.5">
<path d="M62.1554 19.6133H59.1348V19.6575H62.1554V19.6133Z" fill="#C9804F"/>
</g>
<path d="M59.981 20.5312H59.7754V20.7395H59.981V20.5312Z" fill="#A86951"/>
<g opacity="0.3">
<path d="M61.5353 19.7227H61.3701V19.885H61.5353V19.7227Z" fill="#333332"/>
</g>
<g opacity="0.3">
<path d="M61.3243 19.7227H61.1592V19.885H61.3243V19.7227Z" fill="#333332"/>
</g>
<g opacity="0.3">
<path d="M61.1202 19.7227H60.9551V19.885H61.1202V19.7227Z" fill="#333332"/>
</g>
<g opacity="0.3">
<path d="M61.5353 18.6016H61.3701V18.7639H61.5353V18.6016Z" fill="#333332"/>
</g>
<g opacity="0.3">
<path d="M61.3243 18.6016H61.1592V18.7639H61.3243V18.6016Z" fill="#333332"/>
</g>
<g opacity="0.3">
<path d="M61.1202 18.6016H60.9551V18.7639H61.1202V18.6016Z" fill="#333332"/>
</g>
<path d="M59.9624 19.3945H59.7568V19.6549H59.9624V19.3945Z" fill="#A86951"/>
<path d="M59.675 18.5273H57.7295V20.738H59.675V18.5273Z" fill="#FFD18D"/>
<path d="M60.7523 18.5273H59.457V20.738H60.7523V18.5273Z" fill="#23385C"/>
<g style="mix-blend-mode:multiply" opacity="0.5">
<path d="M60.7491 19.6133H57.7285V19.6575H60.7491V19.6133Z" fill="#C9804F"/>
</g>
<path d="M58.7281 20.5117H58.5225V20.7373H58.7281V20.5117Z" fill="#A58258"/>
<g opacity="0.3">
<path d="M60.128 19.7227H59.9629V19.885H60.128V19.7227Z" fill="#333332"/>
</g>
<g opacity="0.3">
<path d="M59.9181 19.7227H59.7529V19.885H59.9181V19.7227Z" fill="#333332"/>
</g>
<g opacity="0.3">
<path d="M59.714 19.7227H59.5488V19.885H59.714V19.7227Z" fill="#333332"/>
</g>
<g opacity="0.3">
<path d="M60.128 18.6016H59.9629V18.7639H60.128V18.6016Z" fill="#333332"/>
</g>
<g opacity="0.3">
<path d="M59.9181 18.6016H59.7529V18.7639H59.9181V18.6016Z" fill="#333332"/>
</g>
<g opacity="0.3">
<path d="M59.714 18.6016H59.5488V18.7639H59.714V18.6016Z" fill="#333332"/>
</g>
<path d="M58.7281 19.4297H58.5225V19.6553H58.7281V19.4297Z" fill="#A58258"/>
<path d="M57.7872 15.2148H55.9473V18.5437H57.7872V15.2148Z" fill="#FFD18D"/>
<path d="M59.3312 15.2148H57.6748V18.5437H59.3312V15.2148Z" fill="#23385C"/>
<g style="mix-blend-mode:multiply" opacity="0.5">
<path d="M59.3277 17.4102H55.9463V17.4543H59.3277V17.4102Z" fill="#C9804F"/>
</g>
<g style="mix-blend-mode:multiply" opacity="0.5">
<path d="M59.3282 16.3008H55.9463V16.345H59.3282V16.3008Z" fill="#C9804F"/>
</g>
<path d="M56.9409 17.2305H56.7354V17.4561H56.9409V17.2305Z" fill="#A58258"/>
<path opacity="0.8" d="M59.2449 16.4102H59.0527V16.5725H59.2449V16.4102Z" fill="#C2D8EF"/>
<g opacity="0.2">
<path d="M58.3959 16.4102H58.0752V16.5725H58.3959V16.4102Z" fill="#333332"/>
</g>
<g opacity="0.2">
<path d="M58.0304 16.4102H57.8652V16.5725H58.0304V16.4102Z" fill="#333332"/>
</g>
<g opacity="0.2">
<path d="M58.3959 17.5352H58.0752V17.6975H58.3959V17.5352Z" fill="#333332"/>
</g>
<g opacity="0.2">
<path d="M58.0304 17.5352H57.8652V17.6975H58.0304V17.5352Z" fill="#333332"/>
</g>
<g opacity="0.2">
<path d="M58.3959 15.2891H58.0752V15.4514H58.3959V15.2891Z" fill="#333332"/>
</g>
<g opacity="0.2">
<path d="M58.0304 15.2891H57.8652V15.4514H58.0304V15.2891Z" fill="#333332"/>
</g>
<path opacity="0.8" d="M59.2449 15.2812H59.0527V15.4436H59.2449V15.2812Z" fill="#C2D8EF"/>
<path opacity="0.8" d="M59.2449 17.5195H59.0527V17.6819H59.2449V17.5195Z" fill="#C2D8EF"/>
<path d="M56.9224 16.1172H56.7168V16.3428H56.9224V16.1172Z" fill="#A58258"/>
<path d="M61.0813 15.2148H59.1357V18.5437H61.0813V15.2148Z" fill="#BA6145"/>
<path d="M62.1585 15.2148H60.8633V18.5437H62.1585V15.2148Z" fill="#23385C"/>
<g style="mix-blend-mode:multiply" opacity="0.5">
<path d="M62.1551 17.4102H59.1348V17.4543H62.1551V17.4102Z" fill="#C9804F"/>
</g>
<g style="mix-blend-mode:multiply" opacity="0.5">
<path d="M62.1554 16.3008H59.1348V16.345H62.1554V16.3008Z" fill="#C9804F"/>
</g>
<path d="M59.981 17.2461H59.7754V17.4543H59.981V17.2461Z" fill="#A86951"/>
<g opacity="0.3">
<path d="M61.5353 16.4102H61.3701V16.5725H61.5353V16.4102Z" fill="#333332"/>
</g>
<g opacity="0.3">
<path d="M61.3243 16.4102H61.1592V16.5725H61.3243V16.4102Z" fill="#333332"/>
</g>
<g opacity="0.3">
<path d="M61.1202 16.4102H60.9551V16.5725H61.1202V16.4102Z" fill="#333332"/>
</g>
<g opacity="0.3">
<path d="M61.5353 17.5352H61.3701V17.6975H61.5353V17.5352Z" fill="#333332"/>
</g>
<g opacity="0.3">
<path d="M61.3243 17.5352H61.1592V17.6975H61.3243V17.5352Z" fill="#333332"/>
</g>
<g opacity="0.3">
<path d="M61.1202 17.5352H60.9551V17.6975H61.1202V17.5352Z" fill="#333332"/>
</g>
<g opacity="0.3">
<path d="M61.5353 15.2891H61.3701V15.4514H61.5353V15.2891Z" fill="#333332"/>
</g>
<g opacity="0.3">
<path d="M61.3243 15.2891H61.1592V15.4514H61.3243V15.2891Z" fill="#333332"/>
</g>
<g opacity="0.3">
<path d="M61.1202 15.2891H60.9551V15.4514H61.1202V15.2891Z" fill="#333332"/>
</g>
<path d="M59.9624 18.3672H59.7568V18.5436H59.9624V18.3672Z" fill="#A86951"/>
<path d="M59.9624 16.0859H59.7568V16.3463H59.9624V16.0859Z" fill="#A86951"/>
<path d="M59.675 15.2148H57.7295V18.5437H59.675V15.2148Z" fill="#FFD18D"/>
<path d="M60.7523 15.2148H59.457V18.5437H60.7523V15.2148Z" fill="#23385C"/>
<g style="mix-blend-mode:multiply" opacity="0.5">
<path d="M60.7488 17.4102H57.7285V17.4543H60.7488V17.4102Z" fill="#C9804F"/>
</g>
<g style="mix-blend-mode:multiply" opacity="0.5">
<path d="M60.7491 16.3008H57.7285V16.345H60.7491V16.3008Z" fill="#C9804F"/>
</g>
<path d="M58.7281 17.2305H58.5225V17.4561H58.7281V17.2305Z" fill="#A58258"/>
<g opacity="0.3">
<path d="M60.128 16.4102H59.9629V16.5725H60.128V16.4102Z" fill="#333332"/>
</g>
<g opacity="0.3">
<path d="M59.9181 16.4102H59.7529V16.5725H59.9181V16.4102Z" fill="#333332"/>
</g>
<g opacity="0.3">
<path d="M59.714 16.4102H59.5488V16.5725H59.714V16.4102Z" fill="#333332"/>
</g>
<g opacity="0.3">
<path d="M60.128 17.5352H59.9629V17.6975H60.128V17.5352Z" fill="#333332"/>
</g>
<g opacity="0.3">
<path d="M59.9181 17.5352H59.7529V17.6975H59.9181V17.5352Z" fill="#333332"/>
</g>
<g opacity="0.3">
<path d="M59.714 17.5352H59.5488V17.6975H59.714V17.5352Z" fill="#333332"/>
</g>
<g opacity="0.3">
<path d="M60.128 15.2891H59.9629V15.4514H60.128V15.2891Z" fill="#333332"/>
</g>
<g opacity="0.3">
<path d="M59.9181 15.2891H59.7529V15.4514H59.9181V15.2891Z" fill="#333332"/>
</g>
<g opacity="0.3">
<path d="M59.714 15.2891H59.5488V15.4514H59.714V15.2891Z" fill="#333332"/>
</g>
<path d="M58.6958 16.1172H58.4902V16.3428H58.6958V16.1172Z" fill="#A58258"/>
<g style="mix-blend-mode:multiply" opacity="0.5">
<path d="M62.1597 18.5H55.9463V18.5442H62.1597V18.5Z" fill="#C9804F"/>
</g>
<path d="M56.9224 18.3164H56.7168V18.542H56.9224V18.3164Z" fill="#A58258"/>
<path d="M58.7281 18.3164H58.5225V18.542H58.7281V18.3164Z" fill="#A58258"/>
</g>
<g clip-path="url(#clip2_859_8624)">
<path d="M61.4718 18.5273H59.6318V20.738H61.4718V18.5273Z" fill="#FFD18D"/>
<path d="M63.0158 18.5273H61.3594V20.738H63.0158V18.5273Z" fill="#23385C"/>
<g style="mix-blend-mode:multiply" opacity="0.5">
<path d="M63.0128 19.6133H59.6309V19.6575H63.0128V19.6133Z" fill="#C9804F"/>
</g>
<path d="M60.6255 20.5117H60.4199V20.7373H60.6255V20.5117Z" fill="#A58258"/>
<path opacity="0.8" d="M62.9295 19.7227H62.7373V19.885H62.9295V19.7227Z" fill="#C2D8EF"/>
<g opacity="0.2">
<path d="M62.0804 19.7227H61.7598V19.885H62.0804V19.7227Z" fill="#333332"/>
</g>
<g opacity="0.2">
<path d="M61.7149 19.7227H61.5498V19.885H61.7149V19.7227Z" fill="#333332"/>
</g>
<g opacity="0.2">
<path d="M62.0804 18.6016H61.7598V18.7639H62.0804V18.6016Z" fill="#333332"/>
</g>
<g opacity="0.2">
<path d="M61.7149 18.6016H61.5498V18.7639H61.7149V18.6016Z" fill="#333332"/>
</g>
<path opacity="0.8" d="M62.9295 18.5938H62.7373V18.7561H62.9295V18.5938Z" fill="#C2D8EF"/>
<path d="M60.607 19.4336H60.4014V19.6592H60.607V19.4336Z" fill="#A58258"/>
<path d="M64.7659 18.5273H62.8203V20.738H64.7659V18.5273Z" fill="#BA6145"/>
<path d="M65.8431 18.5273H64.5479V20.738H65.8431V18.5273Z" fill="#23385C"/>
<g style="mix-blend-mode:multiply" opacity="0.5">
<path d="M65.84 19.6133H62.8193V19.6575H65.84V19.6133Z" fill="#C9804F"/>
</g>
<path d="M63.6656 20.5312H63.46V20.7395H63.6656V20.5312Z" fill="#A86951"/>
<g opacity="0.3">
<path d="M65.2198 19.7227H65.0547V19.885H65.2198V19.7227Z" fill="#333332"/>
</g>
<g opacity="0.3">
<path d="M65.0089 19.7227H64.8438V19.885H65.0089V19.7227Z" fill="#333332"/>
</g>
<g opacity="0.3">
<path d="M64.8048 19.7227H64.6396V19.885H64.8048V19.7227Z" fill="#333332"/>
</g>
<g opacity="0.3">
<path d="M65.2198 18.6016H65.0547V18.7639H65.2198V18.6016Z" fill="#333332"/>
</g>
<g opacity="0.3">
<path d="M65.0089 18.6016H64.8438V18.7639H65.0089V18.6016Z" fill="#333332"/>
</g>
<g opacity="0.3">
<path d="M64.8048 18.6016H64.6396V18.7639H64.8048V18.6016Z" fill="#333332"/>
</g>
<path d="M63.647 19.3945H63.4414V19.6549H63.647V19.3945Z" fill="#A86951"/>
<path d="M63.3596 18.5273H61.4141V20.738H63.3596V18.5273Z" fill="#FFD18D"/>
<path d="M64.4369 18.5273H63.1416V20.738H64.4369V18.5273Z" fill="#23385C"/>
<g style="mix-blend-mode:multiply" opacity="0.5">
<path d="M64.4337 19.6133H61.4131V19.6575H64.4337V19.6133Z" fill="#C9804F"/>
</g>
<path d="M62.4126 20.5117H62.207V20.7373H62.4126V20.5117Z" fill="#A58258"/>
<g opacity="0.3">
<path d="M63.8126 19.7227H63.6475V19.885H63.8126V19.7227Z" fill="#333332"/>
</g>
<g opacity="0.3">
<path d="M63.6026 19.7227H63.4375V19.885H63.6026V19.7227Z" fill="#333332"/>
</g>
<g opacity="0.3">
<path d="M63.3985 19.7227H63.2334V19.885H63.3985V19.7227Z" fill="#333332"/>
</g>
<g opacity="0.3">
<path d="M63.8126 18.6016H63.6475V18.7639H63.8126V18.6016Z" fill="#333332"/>
</g>
<g opacity="0.3">
<path d="M63.6026 18.6016H63.4375V18.7639H63.6026V18.6016Z" fill="#333332"/>
</g>
<g opacity="0.3">
<path d="M63.3985 18.6016H63.2334V18.7639H63.3985V18.6016Z" fill="#333332"/>
</g>
<path d="M62.4126 19.4297H62.207V19.6553H62.4126V19.4297Z" fill="#A58258"/>
<path d="M61.4718 15.2148H59.6318V18.5437H61.4718V15.2148Z" fill="#FFD18D"/>
<path d="M63.0158 15.2148H61.3594V18.5437H63.0158V15.2148Z" fill="#23385C"/>
<g style="mix-blend-mode:multiply" opacity="0.5">
<path d="M63.0123 17.4102H59.6309V17.4543H63.0123V17.4102Z" fill="#C9804F"/>
</g>
<g style="mix-blend-mode:multiply" opacity="0.5">
<path d="M63.0128 16.3008H59.6309V16.345H63.0128V16.3008Z" fill="#C9804F"/>
</g>
<path d="M60.6255 17.2305H60.4199V17.4561H60.6255V17.2305Z" fill="#A58258"/>
<path opacity="0.8" d="M62.9295 16.4102H62.7373V16.5725H62.9295V16.4102Z" fill="#C2D8EF"/>
<g opacity="0.2">
<path d="M62.0804 16.4102H61.7598V16.5725H62.0804V16.4102Z" fill="#333332"/>
</g>
<g opacity="0.2">
<path d="M61.7149 16.4102H61.5498V16.5725H61.7149V16.4102Z" fill="#333332"/>
</g>
<g opacity="0.2">
<path d="M62.0804 17.5352H61.7598V17.6975H62.0804V17.5352Z" fill="#333332"/>
</g>
<g opacity="0.2">
<path d="M61.7149 17.5352H61.5498V17.6975H61.7149V17.5352Z" fill="#333332"/>
</g>
<g opacity="0.2">
<path d="M62.0804 15.2891H61.7598V15.4514H62.0804V15.2891Z" fill="#333332"/>
</g>
<g opacity="0.2">
<path d="M61.7149 15.2891H61.5498V15.4514H61.7149V15.2891Z" fill="#333332"/>
</g>
<path opacity="0.8" d="M62.9295 15.2812H62.7373V15.4436H62.9295V15.2812Z" fill="#C2D8EF"/>
<path opacity="0.8" d="M62.9295 17.5195H62.7373V17.6819H62.9295V17.5195Z" fill="#C2D8EF"/>
<path d="M60.607 16.1172H60.4014V16.3428H60.607V16.1172Z" fill="#A58258"/>
<path d="M64.7659 15.2148H62.8203V18.5437H64.7659V15.2148Z" fill="#BA6145"/>
<path d="M65.8431 15.2148H64.5479V18.5437H65.8431V15.2148Z" fill="#23385C"/>
<g style="mix-blend-mode:multiply" opacity="0.5">
<path d="M65.8396 17.4102H62.8193V17.4543H65.8396V17.4102Z" fill="#C9804F"/>
</g>
<g style="mix-blend-mode:multiply" opacity="0.5">
<path d="M65.84 16.3008H62.8193V16.345H65.84V16.3008Z" fill="#C9804F"/>
</g>
<path d="M63.6656 17.2461H63.46V17.4543H63.6656V17.2461Z" fill="#A86951"/>
<g opacity="0.3">
<path d="M65.2198 16.4102H65.0547V16.5725H65.2198V16.4102Z" fill="#333332"/>
</g>
<g opacity="0.3">
<path d="M65.0089 16.4102H64.8438V16.5725H65.0089V16.4102Z" fill="#333332"/>
</g>
<g opacity="0.3">
<path d="M64.8048 16.4102H64.6396V16.5725H64.8048V16.4102Z" fill="#333332"/>
</g>
<g opacity="0.3">
<path d="M65.2198 17.5352H65.0547V17.6975H65.2198V17.5352Z" fill="#333332"/>
</g>
<g opacity="0.3">
<path d="M65.0089 17.5352H64.8438V17.6975H65.0089V17.5352Z" fill="#333332"/>
</g>
<g opacity="0.3">
<path d="M64.8048 17.5352H64.6396V17.6975H64.8048V17.5352Z" fill="#333332"/>
</g>
<g opacity="0.3">
<path d="M65.2198 15.2891H65.0547V15.4514H65.2198V15.2891Z" fill="#333332"/>
</g>
<g opacity="0.3">
<path d="M65.0089 15.2891H64.8438V15.4514H65.0089V15.2891Z" fill="#333332"/>
</g>
<g opacity="0.3">
<path d="M64.8048 15.2891H64.6396V15.4514H64.8048V15.2891Z" fill="#333332"/>
</g>
<path d="M63.647 18.3672H63.4414V18.5436H63.647V18.3672Z" fill="#A86951"/>
<path d="M63.647 16.0859H63.4414V16.3463H63.647V16.0859Z" fill="#A86951"/>
<path d="M63.3596 15.2148H61.4141V18.5437H63.3596V15.2148Z" fill="#FFD18D"/>
<path d="M64.4369 15.2148H63.1416V18.5437H64.4369V15.2148Z" fill="#23385C"/>
<g style="mix-blend-mode:multiply" opacity="0.5">
<path d="M64.4334 17.4102H61.4131V17.4543H64.4334V17.4102Z" fill="#C9804F"/>
</g>
<g style="mix-blend-mode:multiply" opacity="0.5">
<path d="M64.4337 16.3008H61.4131V16.345H64.4337V16.3008Z" fill="#C9804F"/>
</g>
<path d="M62.4126 17.2305H62.207V17.4561H62.4126V17.2305Z" fill="#A58258"/>
<g opacity="0.3">
<path d="M63.8126 16.4102H63.6475V16.5725H63.8126V16.4102Z" fill="#333332"/>
</g>
<g opacity="0.3">
<path d="M63.6026 16.4102H63.4375V16.5725H63.6026V16.4102Z" fill="#333332"/>
</g>
<g opacity="0.3">
<path d="M63.3985 16.4102H63.2334V16.5725H63.3985V16.4102Z" fill="#333332"/>
</g>
<g opacity="0.3">
<path d="M63.8126 17.5352H63.6475V17.6975H63.8126V17.5352Z" fill="#333332"/>
</g>
<g opacity="0.3">
<path d="M63.6026 17.5352H63.4375V17.6975H63.6026V17.5352Z" fill="#333332"/>
</g>
<g opacity="0.3">
<path d="M63.3985 17.5352H63.2334V17.6975H63.3985V17.5352Z" fill="#333332"/>
</g>
<g opacity="0.3">
<path d="M63.8126 15.2891H63.6475V15.4514H63.8126V15.2891Z" fill="#333332"/>
</g>
<g opacity="0.3">
<path d="M63.6026 15.2891H63.4375V15.4514H63.6026V15.2891Z" fill="#333332"/>
</g>
<g opacity="0.3">
<path d="M63.3985 15.2891H63.2334V15.4514H63.3985V15.2891Z" fill="#333332"/>
</g>
<path d="M62.3804 16.1172H62.1748V16.3428H62.3804V16.1172Z" fill="#A58258"/>
<g style="mix-blend-mode:multiply" opacity="0.5">
<path d="M65.8442 18.5H59.6309V18.5442H65.8442V18.5Z" fill="#C9804F"/>
</g>
<path d="M60.607 18.3164H60.4014V18.542H60.607V18.3164Z" fill="#A58258"/>
<path d="M62.4126 18.3164H62.207V18.542H62.4126V18.3164Z" fill="#A58258"/>
</g>
<g clip-path="url(#clip3_859_8624)">
<path fill-rule="evenodd" clip-rule="evenodd" d="M12.7931 13.7735L22.1842 6.23141C26.6762 2.57214 26.1973 1.38756 27.5679 6.64964L30.107 15.9659C30.8736 18.9123 31.1887 18.7735 28.8396 16.775L27.0297 15.2377C16.7041 41.9257 24.2707 58.8091 33.7656 57.646L33.7502 57.6153C25.1291 57.2231 20.2734 46.8164 29.8675 19.6289L31.5081 21.0586C33.6492 22.9111 33.3649 23.0345 32.6832 20.2957L29.1093 4.27816C27.9325 -0.137646 27.2242 -0.590991 24.1531 2.10509C18.3793 7.11986 13.7952 10.8639 8.36087 16.4785L14.213 16.5654C11.9576 23.8008 11.6705 26.6405 10.5393 34.7751C11.8651 27.9484 14.8285 20.9741 17.2164 14.6543L13.3492 15.1119C10.2738 15.461 10.4588 15.6763 12.7854 13.7581L12.7931 13.7735Z" fill="url(#paint7_linear_859_8624)"/>
</g>
<defs>
<linearGradient id="paint0_linear_859_8624" x1="64.9133" y1="29.6865" x2="65.4269" y2="60.6058" gradientUnits="userSpaceOnUse">
<stop offset="0.161223" stop-color="#23385C"/>
<stop offset="0.764512" stop-color="#1B65C7"/>
</linearGradient>
<linearGradient id="paint1_linear_859_8624" x1="64.9133" y1="29.6865" x2="65.4269" y2="60.6058" gradientUnits="userSpaceOnUse">
<stop offset="0.161223" stop-color="#23385C"/>
<stop offset="0.764512" stop-color="#1B65C7"/>
</linearGradient>
<linearGradient id="paint2_linear_859_8624" x1="64.9133" y1="29.6865" x2="65.4269" y2="60.6058" gradientUnits="userSpaceOnUse">
<stop offset="0.161223" stop-color="#23385C"/>
<stop offset="0.764512" stop-color="#1B65C7"/>
</linearGradient>
<linearGradient id="paint3_linear_859_8624" x1="71.8399" y1="0" x2="71.8399" y2="22.8089" gradientUnits="userSpaceOnUse">
<stop stop-color="#0D3161"/>
<stop offset="1" stop-color="#1B65C7"/>
</linearGradient>
<linearGradient id="paint4_linear_859_8624" x1="71.8399" y1="0" x2="71.8399" y2="22.8089" gradientUnits="userSpaceOnUse">
<stop stop-color="#0D3161"/>
<stop offset="1" stop-color="#1B65C7"/>
</linearGradient>
<linearGradient id="paint5_linear_859_8624" x1="71.8399" y1="0" x2="71.8399" y2="22.8089" gradientUnits="userSpaceOnUse">
<stop stop-color="#0D3161"/>
<stop offset="1" stop-color="#1B65C7"/>
</linearGradient>
<linearGradient id="paint6_linear_859_8624" x1="71.8399" y1="0" x2="71.8399" y2="22.8089" gradientUnits="userSpaceOnUse">
<stop stop-color="#0D3161"/>
<stop offset="1" stop-color="#1B65C7"/>
</linearGradient>
<linearGradient id="paint7_linear_859_8624" x1="13.7106" y1="6.88051" x2="38.0912" y2="55.4758" gradientUnits="userSpaceOnUse">
<stop stop-color="#0D3161"/>
<stop offset="0.370062" stop-color="#1B65C7"/>
</linearGradient>
<clipPath id="clip0_859_8624">
<rect width="14.156" height="9.63523" fill="white" transform="translate(47.3643 13.1016)"/>
</clipPath>
<clipPath id="clip1_859_8624">
<rect width="6.2137" height="5.52322" fill="white" transform="translate(55.9463 15.2148)"/>
</clipPath>
<clipPath id="clip2_859_8624">
<rect width="6.2137" height="5.52322" fill="white" transform="translate(59.6309 15.2148)"/>
</clipPath>
<clipPath id="clip3_859_8624">
<rect width="54.3326" height="30.6866" fill="white" transform="translate(27.4248) rotate(63.3567)"/>
</clipPath>
</defs>
</svg>
