<svg width="69" height="45" viewBox="0 0 69 45" fill="none" xmlns="http://www.w3.org/2000/svg">
<rect width="69" height="45" fill="#1E1E1E"/>
<g clip-path="url(#clip0_0_1)">
<rect width="1728" height="1117" transform="translate(-1584 -399)" fill="#FDFDFD"/>
<g filter="url(#filter0_d_0_1)">
<rect x="-1256" y="-71" width="1384" height="58" rx="10" fill="white"/>
</g>
<g filter="url(#filter1_d_0_1)">
<rect x="-1256" y="-10" width="1384" height="58" rx="10" fill="white"/>
<g filter="url(#filter2_d_0_1)">
<rect x="11" y="11" width="39" height="15" rx="7.5" fill="white"/>
<path d="M19 18.5C19 17.1193 20.1193 16 21.5 16C22.8807 16 24 17.1193 24 18.5C24 19.8807 22.8807 21 21.5 21C20.1193 21 19 19.8807 19 18.5Z" fill="#C9151B"/>
<path d="M28 18.5C28 17.1193 29.1193 16 30.5 16C31.8807 16 33 17.1193 33 18.5C33 19.8807 31.8807 21 30.5 21C29.1193 21 28 19.8807 28 18.5Z" fill="#C9151B"/>
<path d="M37 18.5C37 17.1193 38.1193 16 39.5 16C40.8807 16 42 17.1193 42 18.5C42 19.8807 40.8807 21 39.5 21C38.1193 21 37 19.8807 37 18.5Z" fill="#C9151B"/>
</g>
</g>
<g filter="url(#filter3_d_0_1)">
<rect x="-1256" y="51" width="1384" height="58" rx="10" fill="white"/>
</g>
</g>
<defs>
<filter id="filter0_d_0_1" x="-1297.9" y="-108.9" width="1467.8" height="141.8" filterUnits="userSpaceOnUse" color-interpolation-filters="sRGB">
<feFlood flood-opacity="0" result="BackgroundImageFix"/>
<feColorMatrix in="SourceAlpha" type="matrix" values="0 0 0 0 0 0 0 0 0 0 0 0 0 0 0 0 0 0 127 0" result="hardAlpha"/>
<feOffset dy="4"/>
<feGaussianBlur stdDeviation="20.95"/>
<feComposite in2="hardAlpha" operator="out"/>
<feColorMatrix type="matrix" values="0 0 0 0 0 0 0 0 0 0 0 0 0 0 0 0 0 0 0.1 0"/>
<feBlend mode="normal" in2="BackgroundImageFix" result="effect1_dropShadow_0_1"/>
<feBlend mode="normal" in="SourceGraphic" in2="effect1_dropShadow_0_1" result="shape"/>
</filter>
<filter id="filter1_d_0_1" x="-1297.9" y="-47.9" width="1467.8" height="141.8" filterUnits="userSpaceOnUse" color-interpolation-filters="sRGB">
<feFlood flood-opacity="0" result="BackgroundImageFix"/>
<feColorMatrix in="SourceAlpha" type="matrix" values="0 0 0 0 0 0 0 0 0 0 0 0 0 0 0 0 0 0 127 0" result="hardAlpha"/>
<feOffset dy="4"/>
<feGaussianBlur stdDeviation="20.95"/>
<feComposite in2="hardAlpha" operator="out"/>
<feColorMatrix type="matrix" values="0 0 0 0 0 0 0 0 0 0 0 0 0 0 0 0 0 0 0.1 0"/>
<feBlend mode="normal" in2="BackgroundImageFix" result="effect1_dropShadow_0_1"/>
<feBlend mode="normal" in="SourceGraphic" in2="effect1_dropShadow_0_1" result="shape"/>
</filter>
<filter id="filter2_d_0_1" x="0.3" y="0.3" width="68.4" height="44.4" filterUnits="userSpaceOnUse" color-interpolation-filters="sRGB">
<feFlood flood-opacity="0" result="BackgroundImageFix"/>
<feColorMatrix in="SourceAlpha" type="matrix" values="0 0 0 0 0 0 0 0 0 0 0 0 0 0 0 0 0 0 127 0" result="hardAlpha"/>
<feOffset dx="4" dy="4"/>
<feGaussianBlur stdDeviation="7.35"/>
<feComposite in2="hardAlpha" operator="out"/>
<feColorMatrix type="matrix" values="0 0 0 0 0 0 0 0 0 0 0 0 0 0 0 0 0 0 0.1 0"/>
<feBlend mode="normal" in2="BackgroundImageFix" result="effect1_dropShadow_0_1"/>
<feBlend mode="normal" in="SourceGraphic" in2="effect1_dropShadow_0_1" result="shape"/>
</filter>
<filter id="filter3_d_0_1" x="-1297.9" y="13.1" width="1467.8" height="141.8" filterUnits="userSpaceOnUse" color-interpolation-filters="sRGB">
<feFlood flood-opacity="0" result="BackgroundImageFix"/>
<feColorMatrix in="SourceAlpha" type="matrix" values="0 0 0 0 0 0 0 0 0 0 0 0 0 0 0 0 0 0 127 0" result="hardAlpha"/>
<feOffset dy="4"/>
<feGaussianBlur stdDeviation="20.95"/>
<feComposite in2="hardAlpha" operator="out"/>
<feColorMatrix type="matrix" values="0 0 0 0 0 0 0 0 0 0 0 0 0 0 0 0 0 0 0.1 0"/>
<feBlend mode="normal" in2="BackgroundImageFix" result="effect1_dropShadow_0_1"/>
<feBlend mode="normal" in="SourceGraphic" in2="effect1_dropShadow_0_1" result="shape"/>
</filter>
<clipPath id="clip0_0_1">
<rect width="1728" height="1117" fill="white" transform="translate(-1584 -399)"/>
</clipPath>
</defs>
</svg>
