<svg width="36" height="36" viewBox="0 0 36 36" fill="none" xmlns="http://www.w3.org/2000/svg">
<path d="M23.5 11H32.5M28 6.5V15.5" stroke="white" stroke-width="2" stroke-linecap="round" stroke-linejoin="round"/>
<path d="M17.9998 23.2439C20.0573 23.2439 21.7253 21.576 21.7253 19.5184C21.7253 17.4609 20.0573 15.793 17.9998 15.793C15.9423 15.793 14.2743 17.4609 14.2743 19.5184C14.2743 21.576 15.9423 23.2439 17.9998 23.2439ZM17.9998 23.2439C19.5807 23.2439 21.0968 23.8719 22.2147 24.9898C23.3326 26.1076 23.9606 27.6238 23.9606 29.2047M17.9998 23.2439C16.4189 23.2439 14.9028 23.8719 13.7849 24.9898C12.6671 26.1076 12.0391 27.6238 12.0391 29.2047" stroke="white" stroke-width="2" stroke-linecap="round" stroke-linejoin="round"/>
</svg>
