<svg width="31" height="29" viewBox="0 0 31 29" fill="none" xmlns="http://www.w3.org/2000/svg">
<path d="M20.5 6H29.5M25 1.5V10.5" stroke="white" stroke-width="2" stroke-linecap="round" stroke-linejoin="round"/>
<path d="M6.5 18.5L7.95 15.6C8.11696 15.2687 8.37281 14.9903 8.68893 14.796C9.00504 14.6018 9.36897 14.4993 9.74 14.5H20.5M20.5 14.5C20.8055 14.4995 21.1071 14.5689 21.3816 14.7031C21.6561 14.8372 21.8963 15.0325 22.0836 15.2739C22.2709 15.5152 22.4004 15.7963 22.4622 16.0956C22.524 16.3948 22.5164 16.7042 22.44 17L20.89 23C20.779 23.4299 20.5281 23.8106 20.1769 24.0822C19.8256 24.3538 19.394 24.5008 18.95 24.5H4.5C3.96957 24.5 3.46086 24.2893 3.08579 23.9142C2.71071 23.5391 2.5 23.0304 2.5 22.5V9.5C2.5 8.4 3.4 7.5 4.5 7.5H8.43C8.75941 7.5017 9.08331 7.58475 9.3729 7.74176C9.6625 7.89877 9.90882 8.12488 10.09 8.4L10.91 9.6C11.0912 9.87512 11.3375 10.1012 11.6271 10.2582C11.9167 10.4152 12.2406 10.4983 12.57 10.5H18.5C19.0304 10.5 19.5391 10.7107 19.9142 11.0858C20.2893 11.4609 20.5 11.9696 20.5 12.5V14.5Z" stroke="white" stroke-width="2" stroke-linecap="round" stroke-linejoin="round"/>
</svg>
