<svg width="24" height="24" viewBox="0 0 24 24" fill="none" xmlns="http://www.w3.org/2000/svg">
<path d="M21.768 5.448C21.2451 5.07064 20.6543 4.79766 20.028 4.644C19.596 4.524 19.152 4.464 18.696 4.464H14.232C13.536 4.464 13.488 4.404 13.116 3.912L11.436 1.68C10.656 0.636 10.044 0 8.088 0H5.304C2.376 0 0 2.376 0 5.304V18.696C0 21.624 2.376 24 5.304 24H18.696C21.624 24 24 21.624 24 18.696V9.768C24 7.98 23.124 6.408 21.768 5.448ZM14.868 17.208H9.12C8.652 17.208 8.292 16.836 8.292 16.368C8.292 15.912 8.652 15.528 9.12 15.528H14.868C15.336 15.528 15.708 15.912 15.708 16.368C15.708 16.836 15.336 17.208 14.868 17.208Z" fill="black"/>
</svg>
