<svg width="17" height="16" viewBox="0 0 17 16" fill="none" xmlns="http://www.w3.org/2000/svg">
<path d="M15.0024 13.7383L12.7108 11.4979L12.6571 11.4162C12.5572 11.3168 12.4207 11.2608 12.2781 11.2608C12.1356 11.2608 11.9991 11.3168 11.8992 11.4162C9.95169 13.2029 6.9508 13.3 4.8867 11.6431C2.82261 9.98627 2.33581 7.08956 3.74915 4.8741C5.1625 2.65863 8.03741 1.81188 10.4673 2.89541C12.8971 3.97893 14.1279 6.65651 13.3434 9.15238C13.2869 9.33269 13.3331 9.52877 13.4645 9.66676C13.596 9.80475 13.7928 9.86369 13.9807 9.82138C14.1687 9.77906 14.3193 9.64192 14.3758 9.46161C15.3136 6.49975 13.8972 3.31235 11.0428 1.96136C8.18836 0.610359 4.75259 1.5012 2.95807 4.0576C1.16354 6.61399 1.54882 10.0687 3.86465 12.187C6.18049 14.3052 9.73189 14.4512 12.2214 12.5306L14.2505 14.5143C14.46 14.7183 14.7988 14.7183 15.0084 14.5143C15.2177 14.3075 15.2177 13.9744 15.0084 13.7675L15.0024 13.7383Z" fill="#A0A0A0"/>
</svg>
